<svg xmlns="http://www.w3.org/2000/svg" xmlns:inkscape="http://www.inkscape.org/namespaces/inkscape" width="512" height="512" viewBox="0 0 512 512">
<title>Fantasy calendar plugin icon</title>
<g id="layer-0" inkscape:groupmode="layer" inkscape:label="Backdrop"><title>Backdrop</title><path d="M63 24 Q42 24 32 41 Q26 52 27 74 L26 435 Q25 467 50 480 Q58 485 81 484 L438 485 Q468 484 482 461 Q486 452 485 431 L484 69 Q484 39 461 28 Q451 23 430 25 Z" fill="#263c49" stroke="#212a30" stroke-width="8" stroke-linecap="round" stroke-linejoin="round"/><path d="M49 267 Q147 155 306 119 Q373 107 470 112 L470 66 Q468 42 441 39 L74 39 Z" fill="#314b58"/><path d="M42 333 Q153 388 261 343 Q364 301 472 353 L471 435 Q472 468 437 470 L75 470 Q43 470 42 440 Z" fill="#20323d"/><path d="M65 39 Q45 39 43 64 L41 433 Q40 468 75 470 L437 471 Q472 471 470 434 L470 70 Q471 41 441 40 Z" fill="none" stroke="#ad8a50" stroke-width="3.5" stroke-linecap="round" stroke-linejoin="round"/><path d="M64 46 L429 46 M48 74 L48 224 M47 273 L47 426" fill="none" stroke="#e0ba70" stroke-width="1.8" stroke-linecap="round" stroke-linejoin="round"/><path d="M67 461 L427 463 Q460 464 461 433 L462 276" fill="none" stroke="#756448" stroke-width="2" stroke-linecap="round" stroke-linejoin="round"/></g>
<g id="layer-1" inkscape:groupmode="layer" inkscape:label="Gold corner penwork"><title>Gold corner penwork</title><path d="M57 99 Q57 61 92 58 M59 82 Q67 72 80 70" fill="none" stroke="#c99d54" stroke-width="2.5" stroke-linecap="round" stroke-linejoin="round"/><path d="M420 453 Q457 453 456 416 M435 448 Q446 440 448 427" fill="none" stroke="#c99d54" stroke-width="2.5" stroke-linecap="round" stroke-linejoin="round"/><path d="M66 436 Q68.2 443.8 76 446 Q68.2 448.2 66 456 Q63.8 448.2 56 446 Q63.8 443.8 66 436 Z" fill="#b99250" stroke="#212a30" stroke-width="2" stroke-linecap="round" stroke-linejoin="round"/><path d="M447 55 Q448.98 62.02 456 64 Q448.98 65.98 447 73 Q445.02 65.98 438 64 Q445.02 62.02 447 55 Z" fill="#b99250" stroke="#212a30" stroke-width="2" stroke-linecap="round" stroke-linejoin="round"/></g>
<g id="layer-2" inkscape:groupmode="layer" inkscape:label="Calendar shadow"><title>Calendar shadow</title><g transform="rotate(-5 250 275)"><path d="M91 149 Q83 142 84 163 L86 422 Q88 445 111 448 L397 445 Q423 443 424 418 L421 158 Q419 143 399 144 Z" fill="#12212a" opacity="0.7"/></g></g>
<g id="layer-3" inkscape:groupmode="layer" inkscape:label="Binder rings behind pages"><title>Binder rings behind pages</title><g transform="rotate(-5 250 275)"><g transform="translate(302 0) scale(-1 1)"><g transform="translate(151 148) scale(0.95) translate(-151 -148)"><path d="M150 151 C165 145 172 128 170 108 C169 89 162 79 149 78" fill="none" stroke="#212a30" stroke-width="13" stroke-linecap="round" stroke-linejoin="round"/><path d="M150 151 C165 145 172 128 170 108 C169 89 162 79 149 78" fill="none" stroke="#a87d43" stroke-width="7.5" stroke-linecap="round" stroke-linejoin="round"/><path d="M166 111 Q169 94 158 84" fill="none" stroke="#d8b36a" stroke-width="2.5" stroke-linecap="round" stroke-linejoin="round"/></g></g><g transform="translate(648 0) scale(-1 1)"><g transform="translate(324 148) scale(0.95) translate(-324 -148)"><path d="M323 151 C338 145 345 128 343 108 C342 89 335 79 322 78" fill="none" stroke="#212a30" stroke-width="13" stroke-linecap="round" stroke-linejoin="round"/><path d="M323 151 C338 145 345 128 343 108 C342 89 335 79 322 78" fill="none" stroke="#a87d43" stroke-width="7.5" stroke-linecap="round" stroke-linejoin="round"/><path d="M339 111 Q342 94 331 84" fill="none" stroke="#d8b36a" stroke-width="2.5" stroke-linecap="round" stroke-linejoin="round"/></g></g></g></g>
<g id="layer-4" inkscape:groupmode="layer" inkscape:label="Stacked paper edges"><title>Stacked paper edges</title><g transform="rotate(-5 250 275)"><path d="M92 135 L395 131 Q407 132 408 147 L411 411 Q411 431 391 434 L105 437 Q84 437 83 417 L80 153 Q78 137 92 135 Z" fill="#b3894c" stroke="#212a30" stroke-width="7" stroke-linecap="round" stroke-linejoin="round"/><path d="M91 159 L397 144 L401 410 Q400 420 387 422 L108 427 Q96 427 95 415 Z" fill="#dec087" stroke="#212a30" stroke-width="3" stroke-linecap="round" stroke-linejoin="round"/><path d="M97 404 Q220 409 400 400 M101 415 Q235 419 392 411" fill="none" stroke="#9b713e" stroke-width="2.6" stroke-linecap="round" stroke-linejoin="round"/><path d="M96 418 Q129 424 198 421 M216 420 L295 418" fill="none" stroke="#fff0bc" stroke-width="2.5" stroke-linecap="round" stroke-linejoin="round"/></g></g>
<g id="layer-5" inkscape:groupmode="layer" inkscape:label="Parchment and folded corner"><title>Parchment and folded corner</title><g transform="rotate(-5 250 275)"><path d="M96 118 Q89 119 88 132 L90 378 Q91 404 120 410 Q245 419 389 405 Q405 402 404 384 L402 129 Q402 116 388 116 Z" fill="#efdaa4" stroke="#212a30" stroke-width="7" stroke-linecap="round" stroke-linejoin="round"/><path d="M95 173 L108 173 L110 357 Q111 386 133 399 Q259 408 397 389 L396 398 Q228 419 116 405 Q96 400 95 372 Z" fill="#d0ac70"/><path d="M111 177 L118 355 Q135 387 178 396 Q286 399 387 388 L385 184 Z" fill="#f3dfad"/><path d="M117 182 Q188 177 297 179 L281 185 Q192 184 118 190 Z" fill="#fff0c3"/><path d="M125 192 L123 342 L119 333 L118 200 Z" fill="#fff0c3"/><path d="M380 195 L385 340 L378 334 L374 195 Z" fill="#d8b77b"/><path d="M326 403 Q365 407 392 401 Q404 397 403 383 L401 361 Q383 387 357 389 Q343 388 326 403 Z" fill="#ad7f43" stroke="#212a30" stroke-width="3.5" stroke-linecap="round" stroke-linejoin="round"/><path d="M328 401 Q350 383 374 384 Q388 382 400 365 Q388 403 328 401 Z" fill="#ffe8ad"/><path d="M340 398 Q367 390 383 388" fill="none" stroke="#fff4ce" stroke-width="2.3" stroke-linecap="round" stroke-linejoin="round"/></g></g>
<g id="layer-6" inkscape:groupmode="layer" inkscape:label="Binding and gold ornament"><title>Binding and gold ornament</title><g transform="rotate(-5 250 275)"><path d="M89 129 Q88 117 102 116 L389 114 Q402 114 403 128 L404 181 Q314 177 252 187 Q161 178 89 185 Z" fill="#78513b" stroke="#212a30" stroke-width="7" stroke-linecap="round" stroke-linejoin="round"/><path d="M97 125 Q189 123 254 124 L393 123 L395 172 Q308 168 253 177 Q169 169 98 176 Z" fill="#36515a" stroke="#c99d54" stroke-width="3.8" stroke-linecap="round" stroke-linejoin="round"/><path d="M102 134 Q181 130 230 135 M273 133 L382 132" fill="none" stroke="#718075" stroke-width="2.3" stroke-linecap="round" stroke-linejoin="round"/><path d="M97 171 Q170 164 233 172 M273 172 Q334 164 393 170" fill="none" stroke="#cfaa62" stroke-width="2.3" stroke-linecap="round" stroke-linejoin="round"/><path d="M252 139 Q256.18 153.82 271 158 Q256.18 162.18 252 177 Q247.82 162.18 233 158 Q247.82 153.82 252 139 Z" fill="#d6ad61" stroke="#212a30" stroke-width="3" stroke-linecap="round" stroke-linejoin="round"/><path d="M252 140 L249 153 L237 158 L252 158 Z" fill="#fff0bc"/><path d="M252 176 L253 160 L267 158 L252 158 Z" fill="#9a6d36"/></g></g>
<g id="layer-7" inkscape:groupmode="layer" inkscape:label="Calendar ink and selected date"><title>Calendar ink and selected date</title><g transform="rotate(-5 250 275)"><path d="M126 213 Q125 212 131 211 L157 212 Q163 212 162 217 L164 242 Q161 247 156 246 L129 246 Q125 246 126 240 Z" fill="#92703e" stroke="#212a30" stroke-width="2" stroke-linecap="round" stroke-linejoin="round"/><path d="M129 241 L157 242 L158 217 L153 220 L153 237 Z" fill="#b79558"/><path d="M131 248 L155 248" fill="none" stroke="#fff0bd" stroke-width="2" stroke-linecap="round" stroke-linejoin="round"/><path d="M189 213 Q187 210 193 211 L219 210 Q225 210 224 217 L224 242 Q223 247 218 246 L191 248 Q187 246 188 240 Z" fill="#92703e" stroke="#212a30" stroke-width="2" stroke-linecap="round" stroke-linejoin="round"/><path d="M191 241 L219 242 L220 217 L215 220 L215 237 Z" fill="#b79558"/><path d="M193 248 L217 248" fill="none" stroke="#fff0bd" stroke-width="2" stroke-linecap="round" stroke-linejoin="round"/><path d="M249 213 Q249 212 255 211 L281 212 Q287 212 286 217 L288 242 Q285 247 280 246 L253 245 Q249 246 250 240 Z" fill="#92703e" stroke="#212a30" stroke-width="2" stroke-linecap="round" stroke-linejoin="round"/><path d="M253 241 L281 242 L282 217 L277 220 L277 237 Z" fill="#b79558"/><path d="M255 248 L279 248" fill="none" stroke="#fff0bd" stroke-width="2" stroke-linecap="round" stroke-linejoin="round"/><path d="M313 213 Q311 211 317 211 L343 211 Q349 211 348 217 L347 242 Q347 247 342 246 L315 247 Q311 246 312 240 Z" fill="#92703e" stroke="#212a30" stroke-width="2" stroke-linecap="round" stroke-linejoin="round"/><path d="M315 241 L343 242 L344 217 L339 220 L339 237 Z" fill="#b79558"/><path d="M317 248 L341 248" fill="none" stroke="#fff0bd" stroke-width="2" stroke-linecap="round" stroke-linejoin="round"/><path d="M127 271 Q125 268 131 269 L157 268 Q163 268 162 275 L162 300 Q161 305 156 304 L129 305 Q125 304 126 298 Z" fill="#92703e" stroke="#212a30" stroke-width="2" stroke-linecap="round" stroke-linejoin="round"/><path d="M129 299 L157 300 L158 275 L153 278 L153 295 Z" fill="#b79558"/><path d="M131 306 L155 306" fill="none" stroke="#fff0bd" stroke-width="2" stroke-linecap="round" stroke-linejoin="round"/><path d="M187 271 Q187 270 193 269 L219 270 Q225 270 224 275 L225 300 Q223 305 218 304 L191 304 Q187 304 188 298 Z" fill="#92703e" stroke="#212a30" stroke-width="2" stroke-linecap="round" stroke-linejoin="round"/><path d="M191 299 L219 300 L220 275 L215 278 L215 295 Z" fill="#b79558"/><path d="M193 306 L217 306" fill="none" stroke="#fff0bd" stroke-width="2" stroke-linecap="round" stroke-linejoin="round"/><path d="M250 271 Q249 269 255 269 L281 269 Q287 269 286 275 L285 300 Q285 305 280 304 L253 306 Q249 304 250 298 Z" fill="#477d86" stroke="#212a30" stroke-width="3" stroke-linecap="round" stroke-linejoin="round"/><path d="M254 295 L254 273 L280 273" fill="none" stroke="#8ec1bf" stroke-width="2.7" stroke-linecap="round" stroke-linejoin="round"/><path d="M268 275 Q270.42 283.58 279 286 Q270.42 288.42 268 297 Q265.58 288.42 257 286 Q265.58 283.58 268 275 Z" fill="#fff1be"/><path d="M313 271 Q311 270 317 269 L343 270 Q349 270 348 275 L349 300 Q347 305 342 304 L315 303 Q311 304 312 298 Z" fill="#92703e" stroke="#212a30" stroke-width="2" stroke-linecap="round" stroke-linejoin="round"/><path d="M315 299 L343 300 L344 275 L339 278 L339 295 Z" fill="#b79558"/><path d="M317 306 L341 306" fill="none" stroke="#fff0bd" stroke-width="2" stroke-linecap="round" stroke-linejoin="round"/><path d="M125 329 Q125 328 131 327 L157 328 Q163 328 162 333 L163 358 Q161 363 156 362 L129 362 Q125 362 126 356 Z" fill="#92703e" stroke="#212a30" stroke-width="2" stroke-linecap="round" stroke-linejoin="round"/><path d="M129 357 L157 358 L158 333 L153 336 L153 353 Z" fill="#b79558"/><path d="M131 364 L155 364" fill="none" stroke="#fff0bd" stroke-width="2" stroke-linecap="round" stroke-linejoin="round"/><path d="M188 329 Q187 326 193 327 L219 326 Q225 326 224 333 L226 358 Q223 363 218 362 L191 363 Q187 362 188 356 Z" fill="#92703e" stroke="#212a30" stroke-width="2" stroke-linecap="round" stroke-linejoin="round"/><path d="M191 357 L219 358 L220 333 L215 336 L215 353 Z" fill="#b79558"/><path d="M193 364 L217 364" fill="none" stroke="#fff0bd" stroke-width="2" stroke-linecap="round" stroke-linejoin="round"/><path d="M251 329 Q249 327 255 327 L281 327 Q287 327 286 333 L285 358 Q285 363 280 362 L253 363 Q249 362 250 356 Z" fill="#92703e" stroke="#212a30" stroke-width="2" stroke-linecap="round" stroke-linejoin="round"/><path d="M253 357 L281 358 L282 333 L277 336 L277 353 Z" fill="#b79558"/><path d="M255 364 L279 364" fill="none" stroke="#fff0bd" stroke-width="2" stroke-linecap="round" stroke-linejoin="round"/><path d="M311 329 Q311 327 317 327 L343 327 Q349 327 348 333 L349 358 Q347 363 342 362 L315 362 Q311 362 312 356 Z" fill="#92703e" stroke="#212a30" stroke-width="2" stroke-linecap="round" stroke-linejoin="round"/><path d="M315 357 L343 358 L344 333 L339 336 L339 353 Z" fill="#b79558"/><path d="M317 364 L341 364" fill="none" stroke="#fff0bd" stroke-width="2" stroke-linecap="round" stroke-linejoin="round"/></g></g>
<g id="layer-8" inkscape:groupmode="layer" inkscape:label="Pen hatching"><title>Pen hatching</title><g transform="rotate(-5 250 275)"><path d="M99 219 l5 -8" fill="none" stroke="#b68a51" stroke-width="1.5" stroke-linecap="round" stroke-linejoin="round"/><path d="M99 233 l5 -8" fill="none" stroke="#b68a51" stroke-width="1.5" stroke-linecap="round" stroke-linejoin="round"/><path d="M100 248 l5 -8" fill="none" stroke="#b68a51" stroke-width="1.5" stroke-linecap="round" stroke-linejoin="round"/><path d="M101 265 l5 -8" fill="none" stroke="#b68a51" stroke-width="1.5" stroke-linecap="round" stroke-linejoin="round"/><path d="M102 284 l5 -8" fill="none" stroke="#b68a51" stroke-width="1.5" stroke-linecap="round" stroke-linejoin="round"/><path d="M103 301 l5 -8" fill="none" stroke="#b68a51" stroke-width="1.5" stroke-linecap="round" stroke-linejoin="round"/><path d="M104 317 l5 -8" fill="none" stroke="#b68a51" stroke-width="1.5" stroke-linecap="round" stroke-linejoin="round"/><path d="M131 394 l12 1 M148 396 l23 1 M291 397 l15 -1 M116 198 l9 -1" fill="none" stroke="#b18c51" stroke-width="1.7" stroke-linecap="round" stroke-linejoin="round"/><path d="M125 385 Q138 391 160 391 M106 355 L107 365 M353 196 L374 197" fill="none" stroke="#fff0bc" stroke-width="2.2" stroke-linecap="round" stroke-linejoin="round"/></g></g>
<g id="layer-9" inkscape:groupmode="layer" inkscape:label="Punched binding holes"><title>Punched binding holes</title><g transform="rotate(-5 250 275)"><g transform="translate(302 0) scale(-1 1)"><ellipse cx="151" cy="150" rx="14" ry="9.5" fill="#aa7e44" stroke="#212a30" stroke-width="3"/><ellipse cx="151" cy="149.5" rx="10" ry="6.2" fill="#18282e"/><path d="M139 152 Q150 161 164 152" fill="none" stroke="#e3bc73" stroke-width="2.3" stroke-linecap="round" stroke-linejoin="round"/></g><g transform="translate(648 0) scale(-1 1)"><ellipse cx="324" cy="150" rx="14" ry="9.5" fill="#aa7e44" stroke="#212a30" stroke-width="3"/><ellipse cx="324" cy="149.5" rx="10" ry="6.2" fill="#18282e"/><path d="M312 152 Q323 161 337 152" fill="none" stroke="#e3bc73" stroke-width="2.3" stroke-linecap="round" stroke-linejoin="round"/></g></g></g>
<g id="layer-10" inkscape:groupmode="layer" inkscape:label="Binder rings through holes"><title>Binder rings through holes</title><g transform="rotate(-5 250 275)"><g transform="translate(302 0) scale(-1 1)"><g transform="translate(151 148) scale(0.95) translate(-151 -148)"><path d="M130 125 Q135 145 150 152" fill="none" stroke="#24383d" stroke-width="15" stroke-linecap="round" stroke-linejoin="round"/><path d="M149 78 C134 77 125 91 126 110 C127 130 139 145 151 148" fill="none" stroke="#212a30" stroke-width="14" stroke-linecap="round" stroke-linejoin="round"/><path d="M149 78 C134 77 125 91 126 110 C127 130 139 145 151 148" fill="none" stroke="#c99d54" stroke-width="8" stroke-linecap="round" stroke-linejoin="round"/><path d="M147 80 C134 81 128 94 129 110 Q130 127 139 136" fill="none" stroke="#fff0bc" stroke-width="3" stroke-linecap="round" stroke-linejoin="round"/><path d="M141 142 Q147 147 151 147" fill="none" stroke="#9b6d37" stroke-width="3" stroke-linecap="round" stroke-linejoin="round"/></g><path d="M144 156 Q153 159 160 154" fill="none" stroke="#efd195" stroke-width="2" stroke-linecap="round" stroke-linejoin="round"/></g><g transform="translate(648 0) scale(-1 1)"><g transform="translate(324 148) scale(0.95) translate(-324 -148)"><path d="M303 125 Q308 145 323 152" fill="none" stroke="#24383d" stroke-width="15" stroke-linecap="round" stroke-linejoin="round"/><path d="M322 78 C307 77 298 91 299 110 C300 130 312 145 324 148" fill="none" stroke="#212a30" stroke-width="14" stroke-linecap="round" stroke-linejoin="round"/><path d="M322 78 C307 77 298 91 299 110 C300 130 312 145 324 148" fill="none" stroke="#c99d54" stroke-width="8" stroke-linecap="round" stroke-linejoin="round"/><path d="M320 80 C307 81 301 94 302 110 Q303 127 312 136" fill="none" stroke="#fff0bc" stroke-width="3" stroke-linecap="round" stroke-linejoin="round"/><path d="M314 142 Q320 147 324 147" fill="none" stroke="#9b6d37" stroke-width="3" stroke-linecap="round" stroke-linejoin="round"/></g><path d="M317 156 Q326 159 333 154" fill="none" stroke="#efd195" stroke-width="2" stroke-linecap="round" stroke-linejoin="round"/></g></g></g>
<g id="layer-11" inkscape:groupmode="layer" inkscape:label="Wi-Fi overlay"><title>Wi-Fi overlay</title><g transform="translate(2 4)"><path d="M321.340 118.340 A107 107 0 0 1 472.660 118.340" fill="none" stroke="#16242c" stroke-width="27" stroke-linecap="round" stroke-linejoin="round"/><path d="M346.088 143.088 A72 72 0 0 1 447.912 143.088" fill="none" stroke="#16242c" stroke-width="27" stroke-linecap="round" stroke-linejoin="round"/><path d="M370.837 167.837 A37 37 0 0 1 423.163 167.837" fill="none" stroke="#16242c" stroke-width="27" stroke-linecap="round" stroke-linejoin="round"/><circle cx="397" cy="194" r="17" fill="#16242c"/></g><path d="M321.340 118.340 A107 107 0 0 1 472.660 118.340" fill="none" stroke="#212a30" stroke-width="25" stroke-linecap="round" stroke-linejoin="round"/><path d="M321.340 118.340 A107 107 0 0 1 472.660 118.340" fill="none" stroke="#d5ad62" stroke-width="16" stroke-linecap="round" stroke-linejoin="round"/><path d="M346.088 143.088 A72 72 0 0 1 447.912 143.088" fill="none" stroke="#212a30" stroke-width="25" stroke-linecap="round" stroke-linejoin="round"/><path d="M346.088 143.088 A72 72 0 0 1 447.912 143.088" fill="none" stroke="#d5ad62" stroke-width="16" stroke-linecap="round" stroke-linejoin="round"/><path d="M370.837 167.837 A37 37 0 0 1 423.163 167.837" fill="none" stroke="#212a30" stroke-width="25" stroke-linecap="round" stroke-linejoin="round"/><path d="M370.837 167.837 A37 37 0 0 1 423.163 167.837" fill="none" stroke="#d5ad62" stroke-width="16" stroke-linecap="round" stroke-linejoin="round"/><circle cx="397" cy="194" r="15" fill="#212a30"/><circle cx="397" cy="194" r="9" fill="#efd292"/><path d="M326.802 111.246 A107 107 0 0 1 433.596 91.453" fill="none" stroke="#fff0bc" stroke-width="4" stroke-linecap="round" stroke-linejoin="round"/><path d="M349.764 137.661 A72 72 0 0 1 421.625 124.342" fill="none" stroke="#fff0bc" stroke-width="4" stroke-linecap="round" stroke-linejoin="round"/><path d="M372.726 164.076 A37 37 0 0 1 409.655 157.231" fill="none" stroke="#fff0bc" stroke-width="4" stroke-linecap="round" stroke-linejoin="round"/><path d="M393 188 Q389 189 390 194" fill="none" stroke="#fff0bc" stroke-width="2.5" stroke-linecap="round" stroke-linejoin="round"/></g>
</svg>